<svg width="24" height="25" viewBox="0 0 24 25" fill="none" xmlns="http://www.w3.org/2000/svg">
<path d="M6 3.5V15.5" stroke="#111F36" stroke-width="2" stroke-linecap="round" stroke-linejoin="round"/>
<path d="M18 9.5C19.6569 9.5 21 8.15685 21 6.5C21 4.84315 19.6569 3.5 18 3.5C16.3431 3.5 15 4.84315 15 6.5C15 8.15685 16.3431 9.5 18 9.5Z" stroke="#111F36" stroke-width="2" stroke-linecap="round" stroke-linejoin="round"/>
<path d="M6 21.5C7.65685 21.5 9 20.1569 9 18.5C9 16.8431 7.65685 15.5 6 15.5C4.34315 15.5 3 16.8431 3 18.5C3 20.1569 4.34315 21.5 6 21.5Z" stroke="#111F36" stroke-width="2" stroke-linecap="round" stroke-linejoin="round"/>
<path d="M18 9.5C18 11.8869 17.0518 14.1761 15.364 15.864C13.6761 17.5518 11.3869 18.5 9 18.5" stroke="#111F36" stroke-width="2" stroke-linecap="round" stroke-linejoin="round"/>
</svg>
